<svg id="Layer_1" data-name="Layer 1" xmlns="http://www.w3.org/2000/svg" xmlns:xlink="http://www.w3.org/1999/xlink" width="846.80332" height="192.20641" viewBox="0 0 846.80332 192.20641"><defs><style>.cls-1{fill:#fff;}.cls-2{fill:url(#linear-gradient);}.cls-3{fill:url(#linear-gradient-2);}.cls-4{fill:url(#linear-gradient-3);}.cls-5{fill:url(#linear-gradient-4);}.cls-6{fill:url(#linear-gradient-5);}.cls-7{fill:url(#linear-gradient-6);}.cls-8{fill:url(#linear-gradient-7);}</style><linearGradient id="linear-gradient" x1="-745.92546" y1="107.15012" x2="-624.88274" y2="107.15012" gradientTransform="matrix(1, 0, 0, -1, 769.69574, 214.30023)" gradientUnits="userSpaceOnUse"><stop offset="0.49567" stop-color="#fff"/><stop offset="1" stop-color="#fff" stop-opacity="0"/></linearGradient><linearGradient id="linear-gradient-2" x1="-742.29524" y1="119.18194" x2="-621.25252" y2="119.18194" gradientTransform="matrix(1, 0, 0, -1, 762.4353, 238.36387)" xlink:href="#linear-gradient"/><linearGradient id="linear-gradient-3" x1="-740.33165" y1="131.21376" x2="-619.28893" y2="131.21376" gradientTransform="matrix(1, 0, 0, -1, 758.50812, 262.42751)" xlink:href="#linear-gradient"/><linearGradient id="linear-gradient-4" x1="-742.29524" y1="143.24558" x2="-621.25252" y2="143.24558" gradientTransform="matrix(1, 0, 0, -1, 762.4353, 286.49115)" xlink:href="#linear-gradient"/><linearGradient id="linear-gradient-5" x1="-745.92546" y1="155.2774" x2="-624.88274" y2="155.2774" gradientTransform="matrix(1, 0, 0, -1, 769.69574, 310.55479)" xlink:href="#linear-gradient"/><linearGradient id="linear-gradient-6" x1="-753.73953" y1="167.30922" x2="-632.69682" y2="167.30922" gradientTransform="matrix(1, 0, 0, -1, 785.32389, 334.61843)" xlink:href="#linear-gradient"/><linearGradient id="linear-gradient-7" x1="389.02616" y1="108.83628" x2="59.32059" y2="108.83628" gradientUnits="userSpaceOnUse"><stop offset="0.8773" stop-color="#fff"/><stop offset="0.88559" stop-color="#fff" stop-opacity="0.96855"/><stop offset="0.89847" stop-color="#fff" stop-opacity="0.88222"/><stop offset="0.91434" stop-color="#fff" stop-opacity="0.74105"/><stop offset="0.9326" stop-color="#fff" stop-opacity="0.54489"/><stop offset="0.95287" stop-color="#fff" stop-opacity="0.29359"/><stop offset="0.97404" stop-color="#fff" stop-opacity="0"/></linearGradient></defs><path class="cls-1" d="M413.364,155.38364v11.1207h11.97172v2.77485H413.364V183.2965h-3.07881v-30.709h15.51627v2.79614Z" transform="translate(-18.17647 -12.73307)"/><path class="cls-1" d="M447.92148,183.2965v-3.99072h-.08131a9.90718,9.90718,0,0,1-8.8316,4.53734,11.94034,11.94034,0,0,1-8.64938-3.4228,11.93339,11.93339,0,0,1,.04044-17.01523,12.0086,12.0086,0,0,1,8.60894-3.38279q5.935,0,8.8316,4.55778h.08131V160.6098h2.91662v22.6867Zm-2.43087-17.88627a8.62572,8.62572,0,0,0-6.482-2.77485,8.95718,8.95718,0,0,0-6.66424,2.67353,9.16918,9.16918,0,0,0-2.63351,6.70512,8.91842,8.91842,0,0,0,2.65352,6.60294,9.08611,9.08611,0,0,0,6.64423,2.61307,8.68747,8.68747,0,0,0,6.482-2.734,9.026,9.026,0,0,0,2.61308-6.5229A9.16217,9.16217,0,0,0,445.49061,165.41023Z" transform="translate(-18.17647 -12.73307)"/><path class="cls-1" d="M461.35086,183.84312a6.74034,6.74034,0,0,1-5.00308-1.98471,6.84508,6.84508,0,0,1-1.96513-5.02351v-.2631h2.897q.08046,4.65909,4.07117,4.65824,4.23381,0,4.2338-4.0716a3.69359,3.69359,0,0,0-1.64073-3.1597,8.87463,8.87463,0,0,0-1.70161-.911l-1.92426-.75013q-1.21523-.46488-1.94469-.83015a7.92734,7.92734,0,0,1-1.68118-1.13413,5.21738,5.21738,0,0,1-1.64073-4.052,5.99947,5.99947,0,0,1,1.84338-4.53734,6.37627,6.37627,0,0,1,4.61822-1.76164,6.08742,6.08742,0,0,1,6.17807,6.17807h-2.89661q-.22285-3.56584-3.40279-3.565-3.44387,0-3.44366,3.40237a3.072,3.072,0,0,0,1.64073,2.7144,10.21291,10.21291,0,0,0,1.70161.79014l.46574.18221q.1622.06129.48617.1822l.97235.36527a17.31829,17.31829,0,0,1,1.9447.89061,6.8998,6.8998,0,0,1,1.68117,1.2363,6.18968,6.18968,0,0,1,1.64073,4.5169Q468.48127,183.84313,461.35086,183.84312Z" transform="translate(-18.17647 -12.73307)"/><path class="cls-1" d="M477.71815,163.22288V183.2965h-2.89661V163.22288h-4.78085V160.6098h4.78085v-8.0223h2.89661v8.0223h5.4288v2.61308Z" transform="translate(-18.17647 -12.73307)"/><path class="cls-1" d="M514.19812,183.2965v-3.99072h-.08088a9.90788,9.90788,0,0,1-8.832,4.53734,11.942,11.942,0,0,1-8.64981-3.4228,11.93387,11.93387,0,0,1,.04087-17.01523,12.00928,12.00928,0,0,1,8.60894-3.38279q5.935,0,8.832,4.55778h.08088V160.6098h2.91705v22.6867Zm-2.43087-17.88627a8.625,8.625,0,0,0-6.482-2.77485,8.95718,8.95718,0,0,0-6.66424,2.67353,9.16919,9.16919,0,0,0-2.63352,6.70512,8.91877,8.91877,0,0,0,2.654,6.60294,9.08445,9.08445,0,0,0,6.64381,2.61307,8.68676,8.68676,0,0,0,6.482-2.734,9.026,9.026,0,0,0,2.61308-6.5229A9.16213,9.16213,0,0,0,511.76725,165.41023Z" transform="translate(-18.17647 -12.73307)"/><path class="cls-1" d="M539.417,183.2965V170.8186a11.13312,11.13312,0,0,0-.48617-3.36235,6.43055,6.43055,0,0,0-1.6816-2.87617,7.22745,7.22745,0,0,0-9.86482,0,6.39472,6.39472,0,0,0-1.66116,2.79528,10.78857,10.78857,0,0,0-.46574,3.22016v12.701h-2.89661V160.6098h2.89661v2.89661h.08088a7.72638,7.72638,0,0,1,6.98865-3.48411,9.38333,9.38333,0,0,1,7.43395,3.03795,11.35738,11.35738,0,0,1,2.55262,7.75835v12.4779Z" transform="translate(-18.17647 -12.73307)"/><path class="cls-1" d="M567.67385,183.2965v-3.99072h-.0809a9.96861,9.96861,0,0,1-8.832,4.53734,11.94143,11.94143,0,0,1-8.649-3.4228,11.93287,11.93287,0,0,1,.04-17.01523,12.01067,12.01067,0,0,1,8.60894-3.38279,10.03922,10.03922,0,0,1,8.832,4.476h.0809V152.5875h2.917v30.709ZM565.243,165.41023a8.62505,8.62505,0,0,0-6.482-2.77485,8.95852,8.95852,0,0,0-6.66425,2.67353A9.16855,9.16855,0,0,0,549.464,172.014a8.91814,8.91814,0,0,0,2.65308,6.60294A9.08723,9.08723,0,0,0,558.761,181.23a8.6868,8.6868,0,0,0,6.482-2.734,9.026,9.026,0,0,0,2.61308-6.5229A9.16217,9.16217,0,0,0,565.243,165.41023Z" transform="translate(-18.17647 -12.73307)"/><path class="cls-1" d="M590.34718,183.84312a6.7436,6.7436,0,0,1-5.00393-1.98471,6.84608,6.84608,0,0,1-1.96428-5.02351v-.2631h2.89661q.08046,4.65909,4.0716,4.65824,4.23252,0,4.23338-4.0716a3.6926,3.6926,0,0,0-1.64073-3.1597,8.86719,8.86719,0,0,0-1.702-.911l-1.92426-.75013q-1.21458-.46488-1.9447-.83015a7.92361,7.92361,0,0,1-1.68074-1.13413,5.21735,5.21735,0,0,1-1.64073-4.052,5.99794,5.99794,0,0,1,1.84337-4.53734,6.3756,6.3756,0,0,1,4.61823-1.76164,6.08674,6.08674,0,0,1,6.17807,6.17807h-2.89661q-.22352-3.56584-3.40322-3.565-3.44323,0-3.44324,3.40237a3.072,3.072,0,0,0,1.64074,2.7144,10.189,10.189,0,0,0,1.70118.79014l.46659.18221c.10728.04086.26991.10132.48532.1822l.97235.36527a17.28337,17.28337,0,0,1,1.9447.89061,6.88614,6.88614,0,0,1,1.68159,1.2363,6.18791,6.18791,0,0,1,1.64074,4.5169Q597.47717,183.84313,590.34718,183.84312Z" transform="translate(-18.17647 -12.73307)"/><path class="cls-1" d="M623.6684,173.006H603.00729a8.20912,8.20912,0,0,0,2.81572,5.79321,8.594,8.594,0,0,0,5.99586,2.43087,8.9483,8.9483,0,0,0,4.90176-1.41765,7.80834,7.80834,0,0,0,3.221-3.94984h3.07881a11.74113,11.74113,0,0,1-4.33469,5.77278,11.815,11.815,0,0,1-18.656-9.66217,11.61281,11.61281,0,0,1,3.44324-8.4063,11.60182,11.60182,0,0,1,16.77257.08089,11.8528,11.8528,0,0,1,3.46367,8.52805Zm-2.93662-2.61308a9.28234,9.28234,0,0,0-3.01837-5.54971,8.86515,8.86515,0,0,0-11.70819,0,9.18606,9.18606,0,0,0-2.99793,5.54971Z" transform="translate(-18.17647 -12.73307)"/><path class="cls-1" d="M650.58933,176.61182q-3.66675,7.23131-11.28247,7.2313a11.97184,11.97184,0,0,1-8.60894-3.40236,11.27916,11.27916,0,0,1-3.58543-8.4676,11.3974,11.3974,0,0,1,3.605-8.48719,11.92724,11.92724,0,0,1,8.58936-3.46367,12.23127,12.23127,0,0,1,6.78514,1.96428,11.44371,11.44371,0,0,1,4.49733,5.46967h-3.20058a8.43436,8.43436,0,0,0-8.001-4.82087,9.081,9.081,0,0,0-6.62422,2.67353,8.81414,8.81414,0,0,0-2.75442,6.58336,8.98955,8.98955,0,0,0,2.7144,6.64381,9.09234,9.09234,0,0,0,6.66424,2.694q5.61059,0,8.001-4.61822Z" transform="translate(-18.17647 -12.73307)"/><path class="cls-1" d="M671.95969,183.2965v-3.525h-.08088a6.59705,6.59705,0,0,1-3.01837,3.07967,8.98562,8.98562,0,0,1-4.25381.99193q-5.10354,0-7.79836-3.40236a8.82191,8.82191,0,0,1-1.59987-3.46452,17.1319,17.1319,0,0,1-.38485-3.84853V160.6098h2.89661v12.4779a9.68826,9.68826,0,0,0,1.49854,5.83323,6.28035,6.28035,0,0,0,5.38793,2.30911,6.73752,6.73752,0,0,0,4.82172-1.84337,7.10806,7.10806,0,0,0,1.92426-3.11884,12.65891,12.65891,0,0,0,.44531-3.66631V160.6098h2.89661v22.6867Z" transform="translate(-18.17647 -12.73307)"/><path class="cls-1" d="M689.56242,163.10112q-6.4816.5262-6.482,6.92734v13.268h-2.89661V160.6098h2.89661v3.28146h.08089a5.88915,5.88915,0,0,1,2.57306-2.95791,9.86984,9.86984,0,0,1,3.82808-.911Z" transform="translate(-18.17647 -12.73307)"/><path class="cls-1" d="M715.16617,173.006H694.50505a8.20912,8.20912,0,0,0,2.81572,5.79321,8.594,8.594,0,0,0,5.99586,2.43087,8.94828,8.94828,0,0,0,4.90176-1.41765,7.80834,7.80834,0,0,0,3.221-3.94984h3.07882a11.74121,11.74121,0,0,1-4.3347,5.77278,11.815,11.815,0,0,1-18.656-9.66217,11.61281,11.61281,0,0,1,3.44324-8.4063,11.60182,11.60182,0,0,1,16.77257.08089,11.85276,11.85276,0,0,1,3.46367,8.52805Zm-2.93663-2.61308a9.28229,9.28229,0,0,0-3.01837-5.54971,8.86515,8.86515,0,0,0-11.70819,0,9.18606,9.18606,0,0,0-2.99793,5.54971Z" transform="translate(-18.17647 -12.73307)"/><path class="cls-1" d="M742.72977,183.2965V170.8186a11.10655,11.10655,0,0,0-.48617-3.36235,6.42942,6.42942,0,0,0-1.68075-2.87617,7.22745,7.22745,0,0,0-9.86482,0,6.37862,6.37862,0,0,0-1.66116,2.79528,10.78857,10.78857,0,0,0-.46574,3.22016v12.701h-2.89661v-30.709h2.89661v10.91891h.08088q2.24781-3.48411,6.98865-3.48411a9.38453,9.38453,0,0,1,7.43395,3.03795,11.3612,11.3612,0,0,1,2.55177,7.75835v12.4779Z" transform="translate(-18.17647 -12.73307)"/><path class="cls-1" d="M770.37953,180.319a11.68989,11.68989,0,0,1-16.69084.04,11.22651,11.22651,0,0,1-3.525-8.26411,11.75071,11.75071,0,0,1,3.44324-8.48718,11.23087,11.23087,0,0,1,8.38671-3.58543,11.87388,11.87388,0,0,1,8.38586,20.2967Zm-2.00515-14.94964a8.48582,8.48582,0,0,0-6.34069-2.734,8.3909,8.3909,0,0,0-6.42074,2.83531,9.35093,9.35093,0,0,0-2.55262,6.58335,8.97351,8.97351,0,0,0,2.61308,6.442,8.79313,8.79313,0,0,0,12.80229-.0613,9.44276,9.44276,0,0,0,2.51176-6.62338A8.975,8.975,0,0,0,768.37438,165.36936Z" transform="translate(-18.17647 -12.73307)"/><path class="cls-1" d="M783.54624,183.84312a6.7436,6.7436,0,0,1-5.00393-1.98471,6.84608,6.84608,0,0,1-1.96428-5.02351v-.2631h2.89661q.08046,4.65909,4.0716,4.65824,4.23253,0,4.23338-4.0716a3.6926,3.6926,0,0,0-1.64073-3.1597,8.86719,8.86719,0,0,0-1.702-.911l-1.92426-.75013q-1.21458-.46488-1.94469-.83015a7.92344,7.92344,0,0,1-1.68075-1.13413,5.21735,5.21735,0,0,1-1.64073-4.052,5.99794,5.99794,0,0,1,1.84337-4.53734,6.3756,6.3756,0,0,1,4.61823-1.76164,6.08674,6.08674,0,0,1,6.17807,6.17807h-2.89661q-.2235-3.56584-3.40322-3.565-3.44324,0-3.44323,3.40237a3.072,3.072,0,0,0,1.64073,2.7144,10.18975,10.18975,0,0,0,1.70118.79014l.46659.18221c.10728.04086.26991.10132.48532.1822l.97235.36527a17.28254,17.28254,0,0,1,1.9447.89061,6.88639,6.88639,0,0,1,1.6816,1.2363,6.18794,6.18794,0,0,1,1.64073,4.5169Q790.67623,183.84313,783.54624,183.84312Z" transform="translate(-18.17647 -12.73307)"/><path class="cls-1" d="M799.91353,163.22288V183.2965h-2.89661V163.22288h-4.78085V160.6098h4.78085v-8.0223h2.89661v8.0223h5.4288v2.61308Z" transform="translate(-18.17647 -12.73307)"/><path class="cls-1" d="M808.42115,157.83409V152.5875h2.89661v5.24659Zm0,25.46241V160.6098h2.89661v22.6867Z" transform="translate(-18.17647 -12.73307)"/><path class="cls-1" d="M833.76179,183.2965V170.8186a11.13312,11.13312,0,0,0-.48617-3.36235,6.43055,6.43055,0,0,0-1.6816-2.87617,7.22745,7.22745,0,0,0-9.86482,0,6.39472,6.39472,0,0,0-1.66116,2.79528,10.78857,10.78857,0,0,0-.46574,3.22016v12.701h-2.89661V160.6098h2.89661v2.89661h.08089a7.72635,7.72635,0,0,1,6.98864-3.48411,9.38333,9.38333,0,0,1,7.43395,3.03795,11.35738,11.35738,0,0,1,2.55262,7.75835v12.4779Z" transform="translate(-18.17647 -12.73307)"/><path class="cls-1" d="M864.42907,179.7315q0,1.29633-.06046,2.2078a18.17846,18.17846,0,0,1-.26309,2.1269,9.64489,9.64489,0,0,1-1.742,3.94984,10.64958,10.64958,0,0,1-9.01423,4.19336,12.35525,12.35525,0,0,1-7.25174-2.14734,10.96461,10.96461,0,0,1-4.35513-6.17807h3.07882a8.40317,8.40317,0,0,0,8.48718,5.71233,7.96035,7.96035,0,0,0,6.03673-2.32955,8.48542,8.48542,0,0,0,2.18736-6.11761V179.144h-.08089a8.17063,8.17063,0,0,1-3.70718,3.52412,10.95745,10.95745,0,0,1-5.0431,1.175,11.44916,11.44916,0,0,1-8.38671-3.4228,11.3232,11.3232,0,0,1-3.48411-8.36628,11.7063,11.7063,0,0,1,3.44409-8.48718,11.33971,11.33971,0,0,1,8.42673-3.54456,9.77318,9.77318,0,0,1,8.75028,4.63866h.08089V160.6098h2.89661Zm-5.32748-14.30083a8.72592,8.72592,0,0,0-12.80145,0,9.16642,9.16642,0,0,0-2.57306,6.54249,9.04774,9.04774,0,0,0,2.57306,6.482,8.7471,8.7471,0,0,0,12.78187,0,9.02028,9.02028,0,0,0,2.61307-6.482A9.22229,9.22229,0,0,0,859.10159,165.43067Z" transform="translate(-18.17647 -12.73307)"/><path class="cls-1" d="M255.10327,106.60339a8.068,8.068,0,0,0-8.0599,8.06v6.045h16.11985v-6.04495A8.068,8.068,0,0,0,255.10327,106.60339Z" transform="translate(-18.17647 -12.73307)"/><path class="cls-1" d="M255.10327,128.76818a4.01715,4.01715,0,0,0-2.01495,7.4998v4.5901a2.015,2.015,0,1,0,4.02995,0V136.268a4.01715,4.01715,0,0,0-2.015-7.4998Z" transform="translate(-18.17647 -12.73307)"/><rect class="cls-2" x="23.77028" y="105.71514" width="121.04272" height="2.86996" transform="translate(150.40681 201.56716) rotate(-180)"/><rect class="cls-3" x="20.14006" y="117.74696" width="121.04272" height="2.86996" transform="translate(143.14637 225.6308) rotate(-180)"/><rect class="cls-4" x="18.17647" y="129.77878" width="121.04272" height="2.86996" transform="translate(139.21919 249.69444) rotate(-180)"/><rect class="cls-5" x="20.14006" y="141.8106" width="121.04272" height="2.86996" transform="translate(143.14637 273.75808) rotate(-180)"/><rect class="cls-6" x="23.77028" y="153.84242" width="121.04272" height="2.86996" transform="translate(150.40681 297.82172) rotate(-180)"/><rect class="cls-7" x="31.58436" y="165.87424" width="121.04272" height="2.86996" transform="translate(166.03496 321.88536) rotate(-180)"/><path class="cls-8" d="M334.60177,57.79746c-15.88148-27.89772-45.86889-45.06439-79.217-45.06439-32.98995,0-62.80138,16.88855-78.79282,44.348A75.61281,75.61281,0,0,0,130.85734,93.6481h-68.364V96.518h87.79929l2.32449-2.8577h.00885a57.92783,57.92783,0,0,1,32.07474-19.92171l4.07562-.94117,1.93256-3.70954C202.98605,45.5313,227.76817,30.899,255.38472,30.899c27.86475,0,52.74585,14.81615,64.93192,38.66812l1.83983,3.59958L326.06083,74.21a57.49015,57.49015,0,0,1,42.84279,55.28493c0,31.5837-26.03749,57.28183-58.04387,57.28183a58.41973,58.41973,0,0,1-41.15515-16.89464c21.7639-18.129,39.51169-59.22364,33.018-74.37565-17.398-16.76876-68.81876-26.67676-98.20189,0-4.52811,26.86612,16.16288,59.38744,34.32248,74.65337a58.359,58.359,0,0,1-66.54453,10.62391h-.00126l-4.51432-2.85753H51.27427v2.86994h90.90242a76.64992,76.64992,0,0,0,112.24646-.60577,76.54653,76.54653,0,0,0,56.4366,24.74914c42.02262,0,76.2098-33.84305,76.2098-75.4446A75.641,75.641,0,0,0,334.60177,57.79746ZM241.50216,150.933a4.5393,4.5393,0,0,1-4.53374-4.53374V125.242a4.53926,4.53926,0,0,1,4.53374-4.53368h1.51121v-6.04495a12.0899,12.0899,0,0,1,24.17979,0v6.045h1.51127a4.53921,4.53921,0,0,1,4.53368,4.53368v21.15732a4.53925,4.53925,0,0,1-4.53368,4.53374Z" transform="translate(-18.17647 -12.73307)"/><path class="cls-1" d="M455.82047,113.80246V82.78921h-30.5716v31.01325H409.74141V40.03163h15.50746V69.93827h30.5716V40.03163H471.3296v73.77083Z" transform="translate(-18.17647 -12.73307)"/><path class="cls-1" d="M534.09289,86.88731a32.20118,32.20118,0,0,1-1.82989,10.966,25.74687,25.74687,0,0,1-5.3697,8.91616,24.76372,24.76372,0,0,1-8.69618,5.97966,33.90407,33.90407,0,0,1-23.81532,0,24.70328,24.70328,0,0,1-8.69617-5.97966,25.75464,25.75464,0,0,1-5.373-8.91616,33.83151,33.83151,0,0,1,0-21.9321,25.7617,25.7617,0,0,1,5.373-8.91782,25.324,25.324,0,0,1,8.69617-6.03633,33.09334,33.09334,0,0,1,23.81532,0,25.38767,25.38767,0,0,1,8.69618,6.03633,25.75394,25.75394,0,0,1,5.3697,8.91782A32.20809,32.20809,0,0,1,534.09289,86.88731Zm-15.17581,0a29.79067,29.79067,0,0,0-.66663-6.36964,16.27327,16.27327,0,0,0-2.15987-5.373,11.156,11.156,0,0,0-3.92978-3.70979,13.25832,13.25832,0,0,0-11.79933,0,11.3119,11.3119,0,0,0-3.87645,3.70979,16.27349,16.27349,0,0,0-2.15988,5.373,29.792,29.792,0,0,0-.6633,6.36964,29.01862,29.01862,0,0,0,.6633,6.313,16.27975,16.27975,0,0,0,2.15988,5.318,11.3119,11.3119,0,0,0,3.87645,3.70979,13.244,13.244,0,0,0,11.79933,0,11.156,11.156,0,0,0,3.92978-3.70979,16.27951,16.27951,0,0,0,2.15987-5.318A29.01619,29.01619,0,0,0,518.91708,86.88731Z" transform="translate(-18.17647 -12.73307)"/><path class="cls-1" d="M578.16522,97.01174a15.909,15.909,0,0,1-6.64629,13.31425,22.29841,22.29841,0,0,1-7.30959,3.42314,34.51848,34.51848,0,0,1-9.19281,1.15993,48.98486,48.98486,0,0,1-9.13948-.93995,42.2824,42.2824,0,0,1-8.58618-2.49319l2.21654-10.74439a45.311,45.311,0,0,0,7.30958,2.2732,35.41774,35.41774,0,0,0,7.64624.82829,15.41662,15.41662,0,0,0,6.25631-1.10827A3.994,3.994,0,0,0,563.21273,98.74a3.87387,3.87387,0,0,0-2.43652-3.71145q-2.43987-1.16244-6.42631-2.82484-3.21482-1.32993-6.203-2.71318a22.69168,22.69168,0,0,1-5.2597-3.32315,15.4483,15.4483,0,0,1-3.65646-4.54141,13.68065,13.68065,0,0,1-1.38326-6.4813,15.70725,15.70725,0,0,1,1.60324-7.30958,14.06832,14.06832,0,0,1,4.43309-5.09638,20.26146,20.26146,0,0,1,6.64629-2.98983,32.57712,32.57712,0,0,1,8.25286-.99828,46.19661,46.19661,0,0,1,8.91617.83995,29.831,29.831,0,0,1,8.25286,2.96483l-2.32653,10.81773a45.37126,45.37126,0,0,0-6.703-2.38154,26.92844,26.92844,0,0,0-7.03293-.94161,15.15461,15.15461,0,0,0-5.14971.71829A2.912,2.912,0,0,0,552.8,73.80805a3.54061,3.54061,0,0,0,2.32653,3.31315q2.32488,1.10743,5.53969,2.54152,2.32487.99744,5.3697,2.26487a26.63963,26.63963,0,0,1,5.70634,3.26148,19.42633,19.42633,0,0,1,4.53975,4.8064A12.35132,12.35132,0,0,1,578.16522,97.01174Z" transform="translate(-18.17647 -12.73307)"/><path class="cls-1" d="M581.33256,59.99732h8.75283V38.78655l15.17581,7.25322V59.99732h9.34123V71.85H605.2612V95.00034a11.20782,11.20782,0,0,0,1.38326,5.983q1.38492,2.21489,5.483,2.21321a27.17709,27.17709,0,0,0,8.19954-1.2166l1.1066,10.74106a30.86781,30.86781,0,0,1-6.093,1.66324,40.75445,40.75445,0,0,1-7.30958.6633,20.338,20.338,0,0,1-8.25287-1.49325,14.61505,14.61505,0,0,1-5.53969-4.15643,16.95163,16.95163,0,0,1-3.15649-6.20132,28.58413,28.58413,0,0,1-.99661-7.75289V71.85h-8.75283Z" transform="translate(-18.17647 -12.73307)"/><path class="cls-1" d="M626.16874,44.12973a8.63543,8.63543,0,0,1,2.43653-6.203,8.33955,8.33955,0,0,1,6.313-2.54819,8.77332,8.77332,0,0,1,6.36964,14.89915,8.44031,8.44031,0,0,1-6.36964,2.60319,8.25063,8.25063,0,0,1-6.313-2.60319A8.68484,8.68484,0,0,1,626.16874,44.12973Zm1.2166,69.67273V59.85884h15.17581v53.94362Z" transform="translate(-18.17647 -12.73307)"/><path class="cls-1" d="M658.64067,113.80246V71.7115h-8.74951V59.85884h8.74951V57.97561q0-12.07182,6.07966-17.779,6.07965-5.70218,16.18575-5.70468a45.51185,45.51185,0,0,1,5.03971.27832,19.64638,19.64638,0,0,1,4.81973,1.1616l-.88662,11.40935a13.8574,13.8574,0,0,0-2.9365-.6083,30.41212,30.41212,0,0,0-3.15649-.16665q-5.0947,0-7.5329,2.49319-2.43488,2.49236-2.43653,8.2512v2.54819h13.18259V71.7115H673.81648v42.091Z" transform="translate(-18.17647 -12.73307)"/><path class="cls-1" d="M703.28148,136.62117l7.31292-21.15881L690.76552,59.85884h15.72911L717.904,99.95824l10.966-40.0994h15.39913l-25.81187,76.76233Z" transform="translate(-18.17647 -12.73307)"/><path class="cls-1" d="M735.518,105.82624a9.04873,9.04873,0,0,1,2.26987-6.14465,9.37,9.37,0,0,1,12.9626,0,9.06486,9.06486,0,0,1,2.26987,6.14465,9.26478,9.26478,0,0,1-2.26987,6.203,9.22647,9.22647,0,0,1-12.9626,0A9.24814,9.24814,0,0,1,735.518,105.82624Z" transform="translate(-18.17647 -12.73307)"/><path class="cls-1" d="M775.81062,113.80246,756.86836,59.85884h15.28913l11.73934,39.76608L795.5295,59.85884h15.28581L791.873,113.80246Z" transform="translate(-18.17647 -12.73307)"/><path class="cls-1" d="M815.13261,113.80246V59.85884h14.62251v7.31125a16.65158,16.65158,0,0,1,6.75628-6.36964,19.79835,19.79835,0,0,1,8.97283-2.04988,17.08772,17.08772,0,0,1,8.91616,2.21654,17.83461,17.83461,0,0,1,6.03633,5.92633,27.47529,27.47529,0,0,1,3.43647,8.63951,46.7107,46.7107,0,0,1,1.1066,10.24609v28.02342H849.804V85.66905q0-7.31209-2.26987-11.07771-2.27487-3.76479-7.47624-3.76645a10.51621,10.51621,0,0,0-5.763,1.55157,14.69068,14.69068,0,0,0-3.98644,3.6548v37.7712Z" transform="translate(-18.17647 -12.73307)"/></svg>